<?xml version="1.0" encoding="utf-8"?>
<!DOCTYPE svg PUBLIC "-//W3C//DTD SVG 1.1//EN" "http://www.w3.org/Graphics/SVG/1.1/DTD/svg11.dtd">
<svg version="1.1" id="adman-logo" xmlns="http://www.w3.org/2000/svg" xmlns:xlink="http://www.w3.org/1999/xlink" x="0px" y="0px"
	 viewBox="0 0 184.8 96.3" enable-background="new 0 0 184.8 96.3" xml:space="preserve">
	 <style>
	 	#adman-logo{
		 	-webkit-transition: all 300ms cubic-bezier(.55,0,.1,1);
			-moz-transition: all 300ms cubic-bezier(.55,0,.1,1);
			-ms-transition: all 300ms cubic-bezier(.55,0,.1,1);
			-o-transition: all 300ms cubic-bezier(.55,0,.1,1);
			transition: all 300ms cubic-bezier(.55,0,.1,1);
	 	}
	 		#adman-logo:hover #halter-2{
	 			transform: rotate(-10deg);
	 		}
	 </style>
<g id="halter-2">
	<path fill="#757575" d="M7.4,17.2c0-0.1,4-9.4,4.1-9.5c-0.1,0-1.8-0.8-1.9-0.8c-0.1,0.3-4,9.4-4.1,9.5C5.6,16.4,7.3,17.2,7.4,17.2
		z"/>
	<path fill="#757575" d="M16.1,33.8c0-0.1,13.3-30.9,13.3-31c-0.1,0-6.2-2.7-6.3-2.7c0,0.1-13.3,31-13.3,31
		C9.9,31.1,16,33.7,16.1,33.8z"/>
	<path fill="#757575" d="M10.9,25.8c0-0.1,9.2-21.4,9.2-21.5c-0.1,0-5-2.1-5.1-2.2c0,0.1-9.2,21.4-9.2,21.5
		C5.9,23.7,10.8,25.8,10.9,25.8z"/>
	<path fill="#757575" d="M177.4,79.1c0,0.1-4,9.4-4.1,9.5c0.1,0,1.8,0.8,1.9,0.8c0.1-0.3,4-9.4,4.1-9.5
		C179.2,79.9,177.6,79.1,177.4,79.1z"/>
	<path fill="#757575" d="M168.7,62.6c0,0.1-13.3,30.9-13.3,31c0.1,0,6.2,2.7,6.3,2.7c0-0.1,13.3-31,13.3-31
		C174.9,65.2,168.8,62.6,168.7,62.6z"/>
	<path fill="#757575" d="M174,70.5c0,0.1-9.2,21.4-9.2,21.5c0.1,0,5,2.1,5.1,2.2c0-0.1,9.2-21.4,9.2-21.5
		C178.9,72.6,174.1,70.5,174,70.5z"/>
	<path fill="#757575" d="M29.6,17.7c-1.5-0.7-3.3,0.1-3.9,1.6l-0.1,0.2c-0.7,1.5,0.1,3.3,1.6,3.9l130.1,55.9
		c1.5,0.7,3.3-0.1,3.9-1.6l0.1-0.2c0.7-1.5-0.1-3.3-1.6-3.9L29.6,17.7z"/>
	<path fill="#757575" d="M160.6,74.1c-1.5-0.7-3.3,0.1-3.9,1.6l-0.1,0.2c-0.7,1.5,0.1,3.3,1.6,3.9l0.4,0.2c1.5,0.7,3.3-0.1,3.9-1.6
		l0.1-0.2c0.7-1.5-0.1-3.3-1.6-3.9L160.6,74.1z"/>
	<path fill="#757575" d="M25.9,16.1c-1.5-0.7-3.3,0.1-3.9,1.6L21.8,18c-0.7,1.5,0.1,3.3,1.6,3.9l0.4,0.2c1.5,0.7,3.3-0.1,3.9-1.6
		l0.1-0.2c0.7-1.5-0.1-3.3-1.6-3.9L25.9,16.1z"/>
</g>
<g id="halter-1">
	<path fill="#757575" d="M10,88.2c0-0.1-3.7-9.5-3.7-9.6c-0.1,0-1.8,0.7-1.9,0.7c0.1,0.3,3.7,9.5,3.7,9.6
		C8.2,88.9,9.9,88.2,10,88.2z"/>
	<path fill="#757575" d="M27.9,93.8c0-0.1-12.2-31.4-12.2-31.5c-0.1,0-6.3,2.4-6.4,2.5c0,0.1,12.2,31.4,12.2,31.5
		C21.6,96.3,27.7,93.9,27.9,93.8z"/>
	<path fill="#757575" d="M18.6,91.9c0-0.1-8.4-21.7-8.5-21.8c-0.1,0-5,1.9-5.1,2c0,0.1,8.4,21.7,8.5,21.8
		C13.5,93.8,18.4,91.9,18.6,91.9z"/>
	<path fill="#757575" d="M174.8,13.3c0,0.1,3.7,9.5,3.7,9.6c0.1,0,1.8-0.7,1.9-0.7c-0.1-0.3-3.7-9.5-3.7-9.6
		C176.6,12.6,174.9,13.2,174.8,13.3z"/>
	<path fill="#757575" d="M157,7.6c0,0.1,12.2,31.4,12.2,31.5c0.1,0,6.3-2.4,6.4-2.5c0-0.1-12.2-31.4-12.2-31.5
		C163.2,5.2,157.1,7.6,157,7.6z"/>
	<path fill="#757575" d="M166.3,9.6c0,0.1,8.4,21.7,8.5,21.8c0.1,0,5-1.9,5.1-2c0-0.1-8.4-21.7-8.5-21.8
		C171.3,7.6,166.4,9.5,166.3,9.6z"/>
	<path fill="#757575" d="M26.3,73c-1.5,0.6-2.3,2.3-1.7,3.9l0.1,0.2c0.6,1.5,2.3,2.3,3.9,1.7l132-51.1c1.5-0.6,2.3-2.3,1.7-3.9
		l-0.1-0.3c-0.6-1.5-2.3-2.3-3.9-1.7L26.3,73z"/>
	<path fill="#757575" d="M159.3,21.5c-1.5,0.6-2.3,2.3-1.7,3.9l0.1,0.3c0.6,1.5,2.3,2.3,3.9,1.7l0.4-0.1c1.5-0.6,2.3-2.3,1.7-3.9
		l-0.1-0.2c-0.6-1.5-2.3-2.3-3.9-1.7L159.3,21.5z"/>
	<path fill="#757575" d="M22.5,74.4c-1.5,0.6-2.3,2.3-1.7,3.9l0.1,0.3c0.6,1.5,2.3,2.3,3.9,1.7l0.4-0.1c1.5-0.6,2.3-2.3,1.7-3.9
		L26.8,76c-0.6-1.5-2.3-2.3-3.9-1.7L22.5,74.4z"/>
</g>
<text id="academy-manager" transform="matrix(1 0 0 1 42.6216 91.9358)" fill="#757575" font-family="'Exo'" font-size="12">Academy Manager</text>
<text id="adman" transform="matrix(1 0 0 1 43.8574 20.5209)" fill="#757575" font-family="'Exo'" font-size="28">ADMAN</text>
<polygon id="star-2" fill="#FF5722" points="149.9,41.3 152.9,47.5 159.8,48.5 154.8,53.3 156,60.1 149.9,56.9 143.8,60.1 145,53.3 
	140,48.5 146.8,47.5 "/>
<polygon id="star-1" fill="#FF5722" points="37.6,41.3 40.7,47.5 47.5,48.5 42.6,53.3 43.7,60.1 37.6,56.9 31.5,60.1 32.7,53.3 
	27.8,48.5 34.6,47.5 "/>
</svg>
